<?xml version="1.0" encoding="UTF-8" standalone="no"?>
<!DOCTYPE svg PUBLIC "-//W3C//DTD SVG 1.1//EN" "http://www.w3.org/Graphics/SVG/1.1/DTD/svg11.dtd">
<!-- Generated by graphviz version 2.40.1 (20161225.0304)
 -->
<!-- Title: G1 Pages: 1 -->
<svg width="728pt" height="368pt" viewBox="0.00 0.00 728.00 368.00" xmlns="http://www.w3.org/2000/svg" xmlns:xlink="http://www.w3.org/1999/xlink">
<g id="graph0" class="graph" transform="scale(1 1) rotate(0) translate(4 364)">
<title>G1</title>
<polygon fill="#ffffff" stroke="transparent" points="-4,4 -4,-364 724,-364 724,4 -4,4"/>
<!-- Background -->
<g id="node1" class="node">
<title>Background</title>
<polygon fill="#f4f4f4" stroke="#f4f4f4" points="720,-360 252,-360 252,0 720,0 720,-360"/>
</g>
<!-- YearlyAssessmentCycle -->
<g id="node2" class="node">
<title>YearlyAssessmentCycle</title>
<polygon fill="#f4f4f4" stroke="transparent" stroke-width="0" points="544.5,-214.6 427.5,-214.6 427.5,-116.6 544.5,-116.6 544.5,-214.6"/>
<text text-anchor="start" x="456.5745" y="-189.8" font-family="Playfair Display" font-weight="bold" font-size="22.00" fill="#000000">Yearly</text>
<text text-anchor="start" x="437.6259" y="-158.8" font-family="Playfair Display" font-size="22.00" fill="#000000">assessment</text>
<text text-anchor="start" x="463.2944" y="-128.8" font-family="Playfair Display" font-size="22.00" fill="#000000">cycle</text>
</g>
<!-- SelectLearningOutcomes -->
<g id="node3" class="node">
<title>SelectLearningOutcomes</title>
<ellipse fill="#ffffff" stroke="#000000" cx="385.2" cy="-50.4" rx="72.8012" ry="29"/>
<text text-anchor="middle" x="385.2" y="-54" font-family="Playfair Display" font-size="12.00" fill="#000000">Select Learning</text>
<text text-anchor="middle" x="385.2" y="-39.6" font-family="Playfair Display" font-size="12.00" fill="#000000"> Outcomes to assess</text>
</g>
<!-- CollectMeasures -->
<g id="node4" class="node">
<title>CollectMeasures</title>
<ellipse fill="#ffffff" stroke="#000000" cx="586.8" cy="-50.4" rx="72" ry="29"/>
<text text-anchor="middle" x="586.8" y="-46.8" font-family="Playfair Display" font-size="12.00" fill="#000000">Collect measures</text>
</g>
<!-- SelectLearningOutcomes&#45;&gt;CollectMeasures -->
<g id="edge1" class="edge">
<title>SelectLearningOutcomes-&gt;CollectMeasures</title>
<path fill="none" stroke="#000000" d="M457.9822,-50.4C473.0628,-50.4 489.0522,-50.4 504.4473,-50.4"/>
<polygon fill="#000000" stroke="#000000" points="504.4627,-53.9001 514.4627,-50.4 504.4627,-46.9001 504.4627,-53.9001"/>
</g>
<!-- AnalyzeData -->
<g id="node5" class="node">
<title>AnalyzeData</title>
<ellipse fill="#ffffff" stroke="#000000" cx="630" cy="-208.8" rx="72" ry="29"/>
<text text-anchor="middle" x="630" y="-205.2" font-family="Playfair Display" font-size="12.00" fill="#000000">Analyze data</text>
</g>
<!-- CollectMeasures&#45;&gt;AnalyzeData -->
<g id="edge2" class="edge">
<title>CollectMeasures-&gt;AnalyzeData</title>
<path fill="none" stroke="#000000" d="M594.7235,-79.453C601.6657,-104.9075 611.8096,-142.102 619.4399,-170.0795"/>
<polygon fill="#000000" stroke="#000000" points="616.1188,-171.2045 622.1267,-179.9312 622.8721,-169.3626 616.1188,-171.2045"/>
</g>
<!-- ResultsRecommendations -->
<g id="node7" class="node">
<title>ResultsRecommendations</title>
<ellipse fill="#ffffff" stroke="#000000" cx="486" cy="-309.6" rx="72" ry="29"/>
<text text-anchor="middle" x="486" y="-313.2" font-family="Playfair Display" font-size="12.00" fill="#000000">Results and</text>
<text text-anchor="middle" x="486" y="-298.8" font-family="Playfair Display" font-size="12.00" fill="#000000"> recommendations</text>
</g>
<!-- AnalyzeData&#45;&gt;ResultsRecommendations -->
<g id="edge3" class="edge">
<title>AnalyzeData-&gt;ResultsRecommendations</title>
<path fill="none" stroke="#000000" d="M594.0342,-233.9761C574.705,-247.5065 550.7074,-264.3048 530.2426,-278.6302"/>
<polygon fill="#000000" stroke="#000000" points="528.1916,-275.7935 522.0064,-284.3955 532.2059,-281.5282 528.1916,-275.7935"/>
</g>
<!-- Implementchanges -->
<g id="node6" class="node">
<title>Implementchanges</title>
<ellipse fill="#ffffff" stroke="#000000" cx="342" cy="-208.8" rx="72" ry="29"/>
<text text-anchor="middle" x="342" y="-205.2" font-family="Playfair Display" font-size="12.00" fill="#000000">Implement changes</text>
</g>
<!-- Implementchanges&#45;&gt;SelectLearningOutcomes -->
<g id="edge5" class="edge">
<title>Implementchanges-&gt;SelectLearningOutcomes</title>
<path fill="none" stroke="#000000" d="M349.9235,-179.747C356.8657,-154.2925 367.0096,-117.098 374.6399,-89.1205"/>
<polygon fill="#000000" stroke="#000000" points="378.0721,-89.8374 377.3267,-79.2688 371.3188,-87.9955 378.0721,-89.8374"/>
</g>
<!-- ResultsRecommendations&#45;&gt;Implementchanges -->
<g id="edge4" class="edge">
<title>ResultsRecommendations-&gt;Implementchanges</title>
<path fill="none" stroke="#000000" d="M450.0342,-284.4239C430.705,-270.8935 406.7074,-254.0952 386.2426,-239.7698"/>
<polygon fill="#000000" stroke="#000000" points="388.2059,-236.8718 378.0064,-234.0045 384.1916,-242.6065 388.2059,-236.8718"/>
</g>
<!-- SchoolValues -->
<g id="node8" class="node">
<title>SchoolValues</title>
<polygon fill="#ffffff" stroke="#000000" points="180,-338.6 0,-338.6 0,-280.6 180,-280.6 180,-338.6"/>
<text text-anchor="middle" x="90" y="-306" font-family="Playfair Display" font-size="12.00" fill="#000000">School Values</text>
</g>
<!-- ProgramObjectives -->
<g id="node9" class="node">
<title>ProgramObjectives</title>
<polygon fill="#ffffff" stroke="#000000" points="180,-252.2 0,-252.2 0,-194.2 180,-194.2 180,-252.2"/>
<text text-anchor="middle" x="90" y="-219.6" font-family="Playfair Display" font-size="12.00" fill="#000000">Program Objectives</text>
</g>
<!-- SchoolValues&#45;&gt;ProgramObjectives -->
<g id="edge6" class="edge">
<title>SchoolValues-&gt;ProgramObjectives</title>
<path fill="none" stroke="#000000" d="M90,-280.3489C90,-274.719 90,-268.735 90,-262.8401"/>
<polygon fill="#000000" stroke="#000000" points="93.5001,-262.4209 90,-252.421 86.5001,-262.421 93.5001,-262.4209"/>
</g>
<!-- FiveLearningOutcomes -->
<g id="node10" class="node">
<title>FiveLearningOutcomes</title>
<polygon fill="#ffffff" stroke="#000000" points="180,-167.8 0,-167.8 0,-105.8 180,-105.8 180,-167.8"/>
<text text-anchor="start" x="33.5138" y="-152" font-family="Playfair Display" font-weight="bold" font-size="12.00" fill="#000000">Six Learning Outcomes</text>
<text text-anchor="start" x="34.529" y="-133" font-family="Playfair Display" font-size="12.00" fill="#000000">Three program specific</text>
<text text-anchor="start" x="53.018" y="-115" font-family="Playfair Display" font-size="12.00" fill="#000000">Three universal</text>
</g>
<!-- ProgramObjectives&#45;&gt;FiveLearningOutcomes -->
<g id="edge7" class="edge">
<title>ProgramObjectives-&gt;FiveLearningOutcomes</title>
<path fill="none" stroke="#000000" d="M90,-193.9489C90,-188.8774 90,-183.5186 90,-178.1963"/>
<polygon fill="#000000" stroke="#000000" points="93.5001,-178.0916 90,-168.0916 86.5001,-178.0917 93.5001,-178.0916"/>
</g>
<!-- MapCourses -->
<g id="node11" class="node">
<title>MapCourses</title>
<polygon fill="#ffffff" stroke="#000000" points="180,-81.4 0,-81.4 0,-19.4 180,-19.4 180,-81.4"/>
<text text-anchor="start" x="32.8532" y="-64.6" font-family="Playfair Display" font-size="12.00" fill="#000000">Map mandatory courses</text>
<text text-anchor="start" x="52.6688" y="-46.6" font-family="Playfair Display" font-size="12.00" fill="#000000">contributions to</text>
<text text-anchor="start" x="43.0166" y="-29.6" font-family="Playfair Display" font-weight="bold" font-size="12.00" fill="#000000">Learning Outcomes</text>
</g>
<!-- FiveLearningOutcomes&#45;&gt;MapCourses -->
<g id="edge8" class="edge">
<title>FiveLearningOutcomes-&gt;MapCourses</title>
<path fill="none" stroke="#000000" d="M90,-105.6076C90,-101.0806 90,-96.3625 90,-91.6747"/>
<polygon fill="#000000" stroke="#000000" points="93.5001,-91.5466 90,-81.5466 86.5001,-91.5466 93.5001,-91.5466"/>
</g>
<!-- Triangle -->
<g id="node12" class="node">
<title>Triangle</title>
<polygon fill="#000000" stroke="#000000" points="237.4,-50.4 199.9,-75.4 199.9,-25.4 237.4,-50.4"/>
</g>
</g>
</svg>