<?xml version="1.0" encoding="UTF-8" standalone="no"?>
<!DOCTYPE svg PUBLIC "-//W3C//DTD SVG 1.1//EN" "http://www.w3.org/Graphics/SVG/1.1/DTD/svg11.dtd">
<!-- Generated by graphviz version 2.40.1 (20161225.0304)
 -->
<!-- Title: AoL Pages: 1 -->
<svg width="464pt" height="271pt" viewBox="0.00 0.00 464.00 271.00" xmlns="http://www.w3.org/2000/svg" xmlns:xlink="http://www.w3.org/1999/xlink">
<g id="graph0" class="graph" transform="scale(1 1) rotate(0) translate(4 267)">
<title>AoL</title>
<polygon fill="#ffffff" stroke="transparent" points="-4,4 -4,-267 460,-267 460,4 -4,4"/>
<g id="clust1" class="cluster">
<title>cluster_boxes</title>
</g>
<g id="clust2" class="cluster">
<title>cluster_direct_measures</title>
<polygon fill="#c3c3c3" stroke="transparent" points="16,-150 16,-222 320,-222 320,-150 16,-150"/>
<text text-anchor="middle" x="56.3435" y="-209" font-family="Playfair Display" font-size="10.00" fill="#444444">Direct measures</text>
</g>
<g id="clust3" class="cluster">
<title>cluster_indirect_measures</title>
<polygon fill="#eeeeee" stroke="transparent" points="16,-16 16,-142 320,-142 320,-16 16,-16"/>
<text text-anchor="middle" x="59.3985" y="-23" font-family="Playfair Display" font-size="10.00" fill="#444444">Indirect measures</text>
</g>
<!-- Assessment moments at course level -->
<g id="node1" class="node">
<title>Assessment moments at course level</title>
<polygon fill="#ffffff" stroke="#000000" points="312,-194 24,-194 24,-158 312,-158 312,-194"/>
<text text-anchor="middle" x="168" y="-172.4" font-family="Playfair Display" font-size="12.00" fill="#000000">Assessment moments at course level</text>
</g>
<!-- LO -->
<g id="node4" class="node">
<title>LO</title>
<ellipse fill="#ffffff" stroke="#000000" cx="402" cy="-116" rx="54" ry="54"/>
<text text-anchor="middle" x="402" y="-119.6" font-family="Playfair Display" font-size="12.00" fill="#000000">LO</text>
<text text-anchor="middle" x="402" y="-105.2" font-family="Playfair Display" font-size="12.00" fill="#000000">Assessment</text>
</g>
<!-- Assessment moments at course level&#45;&gt;LO -->
<g id="edge1" class="edge">
<title>Assessment moments at course level-&gt;LO</title>
<path fill="none" stroke="#000000" d="M280.1428,-157.9254C296.3246,-154.4646 312.6773,-150.4934 328,-146 332.8638,-144.5737 337.8477,-142.9429 342.8183,-141.195"/>
<polygon fill="#000000" stroke="#000000" points="344.1393,-144.4386 352.3254,-137.7126 341.7316,-137.8657 344.1393,-144.4386"/>
</g>
<!-- Alumni surveys -->
<g id="node2" class="node">
<title>Alumni surveys</title>
<polygon fill="#ffffff" stroke="#000000" points="312,-134 24,-134 24,-98 312,-98 312,-134"/>
<text text-anchor="middle" x="168" y="-112.4" font-family="Playfair Display" font-size="12.00" fill="#000000">Alumni surveys</text>
</g>
<!-- Alumni surveys&#45;&gt;LO -->
<g id="edge2" class="edge">
<title>Alumni surveys-&gt;LO</title>
<path fill="none" stroke="#000000" d="M312.1987,-116C320.9279,-116 329.4432,-116 337.5353,-116"/>
<polygon fill="#000000" stroke="#000000" points="337.5434,-119.5001 347.5433,-116 337.5433,-112.5001 337.5434,-119.5001"/>
</g>
<!-- Employers surveys -->
<g id="node3" class="node">
<title>Employers surveys</title>
<polygon fill="#ffffff" stroke="#000000" points="312,-80 24,-80 24,-44 312,-44 312,-80"/>
<text text-anchor="middle" x="168" y="-58.4" font-family="Playfair Display" font-size="12.00" fill="#000000">Employers surveys</text>
</g>
<!-- Employers surveys&#45;&gt;LO -->
<g id="edge3" class="edge">
<title>Employers surveys-&gt;LO</title>
<path fill="none" stroke="#000000" d="M289.0681,-80.0104C302.2805,-82.6932 315.4722,-85.6872 328,-89 332.5531,-90.204 337.2203,-91.5726 341.8885,-93.0399"/>
<polygon fill="#000000" stroke="#000000" points="340.8432,-96.3804 351.4359,-96.1688 343.0232,-89.7285 340.8432,-96.3804"/>
</g>
</g>
</svg>